# xmcd
#
# Track frame offsets:
#	150
#	16015
#	29995
#	51917
#	63412
#	73625
#	89430
#	107885
#	118512
#	132202
#	140480
#	151067
#	162610
#	177935
#
# Disc length: 2555 seconds
#
# Revision: 1
# Processed by: cddbd v1.4PL0 Copyright (c) Steve Scherf et al.
# Submitted via: audiograbber 1.81.02
#
DISCID=c509f90e
DTITLE=eRic ZieLinski - Java Incident
DYEAR=2002
DGENRE=Blues
TTITLE0=Down to the Ground
TTITLE1=Follow the Sky
TTITLE2=Just a Dream
TTITLE3=Stone Mountain
TTITLE4=Speaking in Tongues
TTITLE5=Let It Pass By
TTITLE6=Medicine Show
TTITLE7=Harmony
TTITLE8=Together Today
TTITLE9=Blues Beat 
TTITLE10=Gone South
TTITLE11=Faint Tears
TTITLE12=And the Birds Will Fly
TTITLE13=Imagination
EXTD=
EXTT0=
EXTT1=
EXTT2=
EXTT3=
EXTT4=
EXTT5=
EXTT6=
EXTT7=
EXTT8=
EXTT9=
EXTT10=
EXTT11=
EXTT12=
EXTT13=
PLAYORDER=
